<?xml version="1.0" encoding="UTF-8" standalone="no"?>
<svg width="100%" height="100%" viewBox="0 0 5000 3334" version="1.1"
    xmlns="http://www.w3.org/2000/svg" xmlns:xlink="http://www.w3.org/1999/xlink"
    xml:space="preserve" xmlns:serif="http://www.serif.com/"
    style="fill-rule:evenodd;clip-rule:evenodd;stroke-linejoin:round;stroke-miterlimit:2;">
    <g transform="matrix(1,0,0,1,0,-833)">
        <g transform="matrix(42.735,0,0,42.735,-10427.4,11474.4)">
            <rect x="244" y="-249" width="117" height="78" style="fill:rgb(51,51,51);"/>
            <clipPath id="_clip1">
                <rect x="244" y="-249" width="117" height="78"/>
            </clipPath>
            <g clip-path="url(#_clip1)">
                <g transform="matrix(10,0,0,10,83.0535,-160.625)">
                    <g transform="matrix(1,0,0,1,16.0946,-8.83747)">
                        <path className="wave-shape" d="M3.456,1.684C3.227,1.662 2.989,1.683 2.746,1.759C2.391,1.869 2.05,2.106 1.784,2.363C1.54,2.599 1.319,2.861 1.155,3.159C0.636,4.101 0.771,5.249 1.291,6.159C1.499,6.523 1.776,6.827 2.04,7.15C2.15,7.285 2.274,7.455 2.408,7.619C2.395,7.613 2.382,7.606 2.369,7.599C1.837,7.311 1.282,6.974 0.883,6.513C-0.221,5.24 -0.135,3.546 0.84,2.199C1.095,1.847 1.407,1.536 1.751,1.272C1.997,1.084 2.266,0.928 2.553,0.813C2.755,0.733 2.963,0.685 3.181,0.683C3.482,0.68 3.75,0.762 3.983,0.901C4.307,1.095 4.566,1.399 4.761,1.746C4.984,2.141 5.138,2.605 5.326,3.043C5.255,2.937 5.185,2.831 5.114,2.735C4.705,2.179 4.117,1.749 3.456,1.684Z" style="fill:url(#_Linear2);"/>
                    </g>
                    <g transform="matrix(1,0,0,1,17.5548,7.66085)">
                        <path d="M2.409,-15.66C2.203,-15.761 1.974,-15.818 1.72,-15.815C1.503,-15.813 1.295,-15.766 1.093,-15.685C0.806,-15.57 0.536,-15.414 0.291,-15.226C-0.053,-14.962 -0.365,-14.651 -0.62,-14.3C-1.595,-12.952 -1.681,-11.258 -0.577,-9.985C-0.178,-9.525 0.377,-9.188 0.909,-8.9C0.922,-8.893 0.935,-8.886 0.948,-8.879C0.998,-8.817 1.05,-8.756 1.102,-8.698L-1.46,-8.698L-1.46,-16.498L9.827,-16.498C9.538,-16.162 9.139,-15.889 8.82,-15.696C7.692,-15.017 6.266,-14.541 4.951,-14.889C4.312,-15.057 3.775,-15.467 3.142,-15.655C2.898,-15.728 2.644,-15.726 2.409,-15.66Z" style="fill:url(#_Linear3);"/>
                    </g>
                    <g transform="matrix(1,0,0,1,17.5548,7.66085)">
                        <path d="M3.425,-14.512C3.386,-14.594 3.345,-14.674 3.301,-14.752C3.083,-15.139 2.786,-15.474 2.409,-15.66C2.644,-15.726 2.898,-15.728 3.142,-15.655C3.775,-15.467 4.312,-15.057 4.951,-14.889C6.266,-14.541 7.692,-15.017 8.82,-15.696C9.139,-15.889 9.538,-16.162 9.827,-16.498L10.225,-16.498C10.171,-15.933 9.831,-15.359 9.465,-14.987C9.26,-14.779 9.01,-14.582 8.71,-14.554C8.47,-14.531 8.248,-14.644 8.024,-14.712C7.736,-14.798 7.365,-14.82 7.086,-14.696C6.352,-14.368 5.999,-13.385 5.108,-13.374C4.334,-13.365 4.117,-14.222 3.483,-14.491C3.464,-14.499 3.445,-14.506 3.425,-14.512Z" style="fill:url(#_Linear4);"/>
                    </g>
                    <g transform="matrix(1,0,0,1,17.5548,7.66085)">
                        <path d="M6.34,-14.104C6.567,-14.336 6.797,-14.567 7.086,-14.696C7.365,-14.82 7.736,-14.798 8.024,-14.712C8.248,-14.644 8.47,-14.531 8.71,-14.554C8.75,-14.558 8.79,-14.564 8.829,-14.574C8.446,-14.172 7.89,-13.943 7.316,-13.948C6.982,-13.952 6.673,-14.086 6.34,-14.104Z" style="fill:url(#_Linear5);"/>
                    </g>
                    <g transform="matrix(1,0,0,1,17.5548,7.66085)">
                        <path d="M8.829,-14.574C9.077,-14.636 9.288,-14.808 9.465,-14.987C9.831,-15.359 10.171,-15.933 10.225,-16.498L10.24,-16.498L10.24,-13.593C9.21,-14.533 7.566,-13.762 6.573,-13.17C6.053,-12.86 5.418,-12.423 4.777,-12.609C4.363,-12.729 4.104,-13.1 3.866,-13.455C3.715,-13.808 3.586,-14.176 3.425,-14.512C3.445,-14.506 3.464,-14.499 3.483,-14.491C4.117,-14.222 4.334,-13.365 5.108,-13.374C5.648,-13.381 5.991,-13.745 6.34,-14.104C6.673,-14.086 6.982,-13.952 7.316,-13.948C7.89,-13.943 8.446,-14.172 8.829,-14.574Z" style="fill:url(#_Linear6);"/>
                    </g>
                    <g transform="matrix(1,0,0,1,17.5548,7.66085)">
                        <path d="M-0.278,-10.545C-0.705,-11.418 -0.786,-12.467 -0.305,-13.339C-0.141,-13.637 0.08,-13.899 0.324,-14.135C0.59,-14.392 0.931,-14.629 1.286,-14.739C2.227,-15.032 3.102,-14.513 3.654,-13.763C3.962,-13.345 4.239,-12.765 4.777,-12.609C5.418,-12.423 6.053,-12.86 6.573,-13.17C7.566,-13.762 9.21,-14.533 10.24,-13.593L10.24,-10.036C10.177,-10.139 10.104,-10.236 10.022,-10.326C9.604,-10.779 8.998,-10.798 8.438,-10.675C8.122,-10.605 7.806,-10.483 7.481,-10.578C6.994,-10.719 6.916,-11.527 6.379,-11.492C5.689,-11.446 5.231,-10.642 4.462,-10.889C4.068,-11.016 3.893,-11.388 3.737,-11.742C3.534,-12.202 3.353,-12.675 2.934,-12.986C1.71,-13.894 0.069,-13.105 -0.239,-11.675C-0.319,-11.308 -0.31,-10.921 -0.278,-10.545Z" style="fill:url(#_Linear7);"/>
                    </g>
                    <g transform="matrix(1,0,0,1,17.5548,7.66085)">
                        <path d="M10.24,-10.036L10.24,-8.698L1.102,-8.698C0.91,-8.91 0.731,-9.163 0.579,-9.349C0.316,-9.672 0.039,-9.975 -0.169,-10.34C-0.207,-10.407 -0.244,-10.475 -0.278,-10.545C-0.31,-10.921 -0.319,-11.308 -0.239,-11.675C0.069,-13.105 1.71,-13.894 2.934,-12.986C3.353,-12.675 3.534,-12.202 3.737,-11.742C3.893,-11.388 4.068,-11.016 4.462,-10.889C5.231,-10.642 5.689,-11.446 6.379,-11.492C6.916,-11.527 6.994,-10.719 7.481,-10.578C7.806,-10.483 8.122,-10.605 8.438,-10.675C8.998,-10.798 9.604,-10.779 10.022,-10.326C10.104,-10.236 10.177,-10.139 10.24,-10.036Z" style="fill:url(#_Linear8);"/>
                    </g>
                </g>
            </g>
        </g>
    </g>
    <defs>
        <linearGradient id="_Linear2" x1="0" y1="0" x2="1" y2="0" gradientUnits="userSpaceOnUse" gradientTransform="matrix(-3.6677,-5.25597,5.25597,-3.6677,4.65868,6.59921)"><stop offset="0" style="stop-color:rgb(5,115,149);stop-opacity:1"/><stop offset="1" style="stop-color:rgb(41,4,40);stop-opacity:1"/></linearGradient>
        <linearGradient id="_Linear3" x1="0" y1="0" x2="1" y2="0" gradientUnits="userSpaceOnUse" gradientTransform="matrix(4.75192,4.46037,-4.46037,4.75192,-2.34328,-16.8075)"><stop offset="0" style="stop-color:rgb(163,11,25);stop-opacity:1"/><stop offset="1" style="stop-color:rgb(41,4,40);stop-opacity:1"/></linearGradient>
        <linearGradient id="_Linear4" x1="0" y1="0" x2="1" y2="0" gradientUnits="userSpaceOnUse" gradientTransform="matrix(0.785827,2.44188,-2.44188,0.785827,4.18348,-15.8154)"><stop offset="0" style="stop-color:rgb(3,135,160);stop-opacity:1"/><stop offset="1" style="stop-color:rgb(41,4,40);stop-opacity:1"/></linearGradient>
        <linearGradient id="_Linear5" x1="0" y1="0" x2="1" y2="0" gradientUnits="userSpaceOnUse" gradientTransform="matrix(-0.64451,-1.1648,1.1648,-0.64451,7.84271,-13.5445)"><stop offset="0" style="stop-color:rgb(163,11,25);stop-opacity:1"/><stop offset="1" style="stop-color:rgb(41,4,40);stop-opacity:1"/></linearGradient>
        <linearGradient id="_Linear6" x1="0" y1="0" x2="1" y2="0" gradientUnits="userSpaceOnUse" gradientTransform="matrix(1.84816,2.69037,-2.69037,1.84816,4.80327,-15.1194)"><stop offset="0" style="stop-color:rgb(9,84,122);stop-opacity:1"/><stop offset="1" style="stop-color:rgb(41,4,40);stop-opacity:1"/></linearGradient>
        <linearGradient id="_Linear7" x1="0" y1="0" x2="1" y2="0" gradientUnits="userSpaceOnUse" gradientTransform="matrix(3.41868,5.01051,-5.01051,3.41868,2.51066,-14.9076)"><stop offset="0" style="stop-color:rgb(11,143,163);stop-opacity:1"/><stop offset="1" style="stop-color:rgb(41,4,40);stop-opacity:1"/></linearGradient>
        <linearGradient id="_Linear8" x1="0" y1="0" x2="1" y2="0" gradientUnits="userSpaceOnUse" gradientTransform="matrix(1.08435,-5.69883,5.69883,1.08435,3.09913,-6.34007)"><stop offset="0" style="stop-color:rgb(163,11,25);stop-opacity:1"/><stop offset="0.57" style="stop-color:rgb(78,6,35);stop-opacity:1"/><stop offset="1" style="stop-color:rgb(41,4,40);stop-opacity:1"/></linearGradient>
    </defs>
</svg>